<?xml version="1.0" standalone="no"?>
<!DOCTYPE svg PUBLIC "-//W3C//DTD SVG 20010904//EN"
 "http://www.w3.org/TR/2001/REC-SVG-20010904/DTD/svg10.dtd">
<svg version="1.0" xmlns="http://www.w3.org/2000/svg"
 width="500.000000pt" height="500.000000pt" viewBox="0 0 500.000000 500.000000"
 preserveAspectRatio="xMidYMid meet">

<g transform="translate(0.000000,500.000000) scale(0.100000,-0.100000)"
fill="#FF0000" stroke="none">
<path d="M2290 4944 c-236 -28 -434 -71 -615 -134 -131 -46 -394 -177 -515
-257 -145 -96 -247 -178 -373 -302 -205 -200 -359 -412 -487 -673 -461 -936
-275 -2068 461 -2807 367 -369 810 -598 1336 -693 113 -20 160 -23 403 -23
307 0 409 13 656 80 915 251 1596 1007 1764 1956 31 175 39 512 16 699 -96
785 -549 1461 -1242 1853 -237 134 -535 236 -829 282 -95 16 -494 28 -575 19z
m258 -971 c4 -89 -13 -126 -63 -143 -44 -14 -99 1 -120 34 -8 12 -18 57 -21
99 l-7 77 41 0 41 0 3 -72 c3 -67 5 -73 26 -76 21 -3 22 0 22 71 0 40 3 77 7
81 4 4 21 6 38 4 l30 -3 3 -72z m118 -13 l-7 -80 40 0 c35 0 40 -3 43 -25 3
-22 11 -15 70 59 l67 84 35 -10 c39 -12 41 -18 52 -155 4 -56 3 -83 -4 -83
-24 0 -62 20 -62 33 0 18 -70 40 -86 26 -8 -7 -33 -7 -76 0 -34 6 -85 13 -112
16 l-49 7 7 66 c14 142 14 142 54 142 l35 0 -7 -80z m-387 51 c12 -8 13 -14 3
-35 -10 -22 -16 -25 -42 -20 -37 8 -60 -9 -60 -46 0 -56 61 -69 70 -15 4 23
11 31 31 33 23 3 28 -2 36 -37 12 -47 -1 -64 -63 -86 -126 -43 -213 127 -100
196 33 20 101 25 125 10z m-215 -128 c21 -49 40 -93 42 -99 3 -6 -7 -16 -22
-23 -24 -11 -34 -9 -85 19 l-59 31 20 -45 19 -46 -29 -15 c-17 -9 -30 -13 -30
-10 0 3 -15 -6 -34 -20 -19 -15 -40 -23 -49 -19 -22 8 -77 -26 -77 -48 0 -17
-46 -55 -56 -46 -3 4 -44 201 -44 215 0 1 13 11 30 23 l29 21 92 -61 c50 -34
93 -60 95 -57 2 2 -12 44 -32 92 -36 84 -36 88 -19 101 27 20 38 18 95 -16 27
-16 50 -27 50 -24 0 2 -7 21 -15 41 -8 19 -15 39 -15 43 0 6 37 28 51 29 3 1
23 -38 43 -86z m1069 21 c74 -37 87 -51 87 -95 0 -29 -6 -43 -30 -62 -23 -20
-30 -34 -30 -61 l0 -36 -35 17 c-30 14 -35 22 -35 50 0 23 -5 33 -15 33 -8 0
-15 -3 -15 -7 0 -5 -4 -14 -9 -21 -7 -12 -14 -11 -40 2 -17 9 -31 19 -31 23 0
7 94 183 98 183 1 0 26 -12 55 -26z m379 -272 c33 -50 13 -118 -43 -148 -46
-23 -89 -11 -148 42 l-51 46 71 79 71 79 41 -35 c22 -19 49 -47 59 -63z m-810
53 c228 -40 435 -150 603 -320 137 -138 241 -320 292 -512 24 -89 27 -115 27
-278 0 -162 -3 -190 -26 -276 -14 -52 -40 -129 -57 -170 -32 -77 -125 -227
-179 -289 -29 -33 -32 -34 -48 -18 -16 15 -13 21 46 100 35 46 85 129 112 185
292 609 -37 1327 -693 1509 -139 38 -344 44 -488 14 -223 -45 -380 -130 -541
-290 -147 -145 -232 -284 -284 -461 -104 -361 -22 -728 229 -1022 54 -65 57
-70 41 -85 -16 -16 -20 -14 -63 33 -153 167 -255 380 -288 602 -19 123 -19
212 -1 333 38 252 148 462 338 646 160 155 334 248 553 294 110 23 315 26 427
5z m-1150 -95 c35 -35 33 -68 -8 -110 l-24 -26 22 -22 c21 -20 21 -23 6 -38
-15 -15 -18 -15 -45 4 -15 11 -50 43 -78 72 l-50 51 52 50 c29 27 61 49 73 49
12 0 35 -14 52 -30z m2117 -120 l50 -65 -22 -17 c-21 -17 -23 -16 -58 25 -46
52 -59 45 -19 -10 l31 -41 -23 -16 c-22 -16 -24 -15 -54 21 -43 51 -55 35 -13
-17 l33 -41 -21 -20 -20 -21 -57 73 c-47 59 -55 75 -44 85 38 37 154 121 160
116 3 -4 29 -36 57 -72z m-847 -82 c181 -214 271 -492 239 -740 -16 -123 -34
-193 -83 -310 l-40 -98 -124 0 c-71 0 -125 -4 -129 -10 -3 -6 5 -10 19 -10 22
0 25 -5 31 -47 10 -75 13 -81 14 -31 2 77 3 78 92 78 l80 0 -85 -162 c-47 -90
-89 -164 -93 -165 -5 -2 -32 44 -61 102 l-52 106 -60 -64 c-120 -129 -271
-171 -468 -131 -102 20 -172 55 -233 116 -60 60 -94 112 -122 187 -30 82 -29
257 1 364 22 76 92 230 111 241 5 4 12 -7 16 -22 6 -30 60 -102 76 -102 5 0 9
17 9 39 0 64 47 230 90 316 46 92 123 185 189 227 70 44 77 40 91 -44 19 -118
40 -189 73 -252 l32 -60 13 50 c38 143 104 277 194 391 64 81 95 105 117 93
10 -5 38 -33 63 -62z m-1412 9 c47 -29 85 -57 85 -61 0 -5 -7 -13 -16 -19 -12
-8 -27 -2 -63 22 -25 18 -46 28 -46 24 0 -4 13 -28 30 -52 40 -61 28 -75 -55
-68 l-60 6 53 -34 c56 -35 58 -37 44 -61 -7 -13 -23 -7 -100 41 -91 56 -91 57
-76 81 15 23 20 24 87 17 l71 -6 -18 28 c-53 81 -58 93 -44 114 7 12 15 21 18
21 3 0 44 -24 90 -53z m2356 -68 l16 -31 -49 -50 c-45 -47 -46 -50 -20 -44 15
3 46 9 70 12 39 6 44 4 55 -20 7 -15 12 -30 12 -35 0 -7 -219 -36 -224 -29 -2
1 -10 17 -19 33 l-15 30 71 82 c40 45 75 82 79 83 4 0 15 -14 24 -31z m-2406
-218 c0 -24 -14 -41 -34 -41 -16 0 -26 -10 -38 -44 -14 -39 -15 -45 -1 -59 15
-15 10 -61 -7 -55 -4 2 -42 35 -84 75 -66 62 -76 75 -70 97 5 21 13 26 52 29
98 7 182 7 182 -2z m2541 -90 l28 -82 -25 -9 c-14 -6 -27 -10 -29 -10 -2 0
-11 23 -20 50 -9 28 -21 50 -26 50 -12 0 -12 0 6 -51 12 -34 13 -44 3 -51 -31
-19 -48 -8 -60 37 -7 25 -16 45 -20 45 -12 0 -10 -23 7 -69 14 -41 14 -42 -11
-51 -14 -6 -27 -10 -29 -10 -2 0 -16 39 -30 87 -22 70 -24 88 -13 92 73 27
175 59 182 57 5 -1 22 -39 37 -85z m-2773 -103 c8 -8 6 -17 -8 -36 -25 -32
-25 -57 0 -82 46 -46 118 -10 107 54 -5 31 6 56 24 56 14 0 31 -70 24 -99 -19
-85 -140 -113 -195 -44 -27 35 -27 101 1 137 23 29 30 31 47 14z m2817 -69 c4
-17 4 -33 0 -37 -3 -4 -37 -11 -73 -17 l-67 -10 0 -45 c0 -41 -2 -45 -26 -48
-30 -3 -33 3 -44 99 l-7 57 73 11 c41 7 81 14 89 15 40 9 49 5 55 -25z m-2865
-164 l0 -35 85 0 c84 0 85 0 85 -25 0 -25 -1 -25 -85 -25 l-85 0 0 -30 c0 -26
-4 -30 -26 -30 -26 0 -27 1 -20 46 3 26 6 66 6 90 0 37 3 44 20 44 16 0 20 -7
20 -35z m2825 -9 c41 -17 65 -60 65 -117 0 -33 -6 -47 -34 -75 -28 -28 -42
-34 -76 -34 -34 0 -48 6 -76 34 -28 28 -34 42 -34 75 0 55 24 99 63 116 41 18
50 18 92 1z m-773 -73 c73 -75 158 -258 158 -339 l0 -24 -165 0 c-91 0 -165 2
-165 5 0 3 11 28 26 56 35 70 81 214 89 282 4 31 10 57 14 57 4 0 23 -17 43
-37z m-1906 -117 c29 -29 34 -41 34 -81 0 -120 -153 -158 -204 -51 -19 40 -20
53 -5 95 14 39 62 71 108 71 24 0 42 -9 67 -34z m2635 -72 c46 -8 87 -19 91
-22 4 -4 1 -36 -7 -72 -16 -79 -42 -105 -95 -96 -47 7 -73 40 -68 88 3 33 1
38 -22 43 -23 5 -25 10 -22 40 5 41 6 41 123 19z m-2601 -159 c37 -19 60 -62
60 -111 0 -28 -8 -44 -35 -71 -33 -33 -39 -35 -82 -30 -106 12 -141 146 -54
204 40 27 71 29 111 8z m2550 -59 c50 -19 94 -36 96 -38 4 -5 -52 -157 -60
-166 -3 -3 -17 0 -30 6 l-25 11 20 50 c22 60 6 70 -17 11 -16 -39 -27 -46 -57
-34 -14 5 -14 10 -1 46 16 46 17 58 6 58 -4 0 -15 -23 -25 -50 -16 -45 -21
-50 -40 -44 -12 3 -24 8 -27 11 -6 6 52 173 61 173 3 0 48 -15 99 -34z m-2427
-188 c23 -31 57 -91 57 -102 0 -5 -182 -107 -185 -104 -2 2 -17 31 -35 65 -20
41 -29 69 -25 83 7 22 40 43 58 37 7 -2 20 9 29 25 25 41 69 39 101 -4z m2327
-13 c36 -21 75 -44 88 -52 l22 -14 -26 -47 c-35 -61 -69 -92 -102 -92 -31 1
-54 16 -71 48 -9 16 -21 22 -46 22 -40 0 -40 1 -20 40 13 25 22 30 50 30 40 0
45 11 13 32 -21 14 -21 15 -3 46 10 17 21 30 24 28 3 -2 35 -20 71 -41z
m-1901 -874 c10 -10 31 -41 46 -69 24 -44 30 -50 46 -41 43 22 107 -48 125
-136 5 -25 -2 -40 -46 -95 -84 -106 -101 -120 -135 -120 -23 0 -41 11 -75 45
-41 42 -46 44 -85 38 -52 -7 -88 14 -116 68 -25 50 -25 51 15 106 18 27 48 77
66 112 17 35 42 74 55 87 29 29 77 32 104 5z m1451 -230 c0 -145 2 -141 -77
-141 -36 0 -50 6 -74 29 -63 64 -16 171 76 171 22 0 25 5 25 35 0 31 3 35 25
35 l25 0 0 -129z m-990 39 c16 -16 20 -33 20 -94 0 -83 -3 -86 -74 -86 -49 0
-72 15 -81 52 -9 34 20 64 70 74 47 8 40 29 -10 30 -22 0 -41 6 -43 13 -12 35
86 43 118 11z m105 -47 c11 -35 23 -63 26 -63 3 0 14 28 25 63 16 49 25 63 42
65 29 4 28 -8 -11 -109 -29 -73 -36 -84 -57 -84 -21 0 -28 10 -57 85 -39 103
-40 112 -10 108 17 -2 26 -16 42 -65z m260 42 c22 -21 25 -33 25 -93 0 -79 -3
-82 -76 -82 -106 0 -115 110 -10 127 20 3 36 9 36 14 0 12 -46 22 -70 16 -14
-4 -20 0 -20 12 0 26 9 31 52 31 28 0 46 -7 63 -25z m206 6 c22 -17 24 -27 24
-98 0 -73 -1 -78 -22 -81 -22 -3 -23 0 -23 65 0 74 -10 93 -47 93 -22 0 -23
-3 -23 -80 0 -79 0 -80 -25 -80 -25 0 -25 0 -25 94 0 105 -2 103 76 105 28 1
50 -6 65 -18z m189 -1 c18 -18 20 -31 18 -98 l-3 -77 -54 -3 c-62 -4 -91 15
-91 59 0 35 21 56 66 65 46 8 38 29 -11 30 -22 0 -41 6 -43 13 -12 35 86 43
118 11z m400 2 c13 -11 23 -33 27 -60 l6 -42 -62 0 c-33 0 -61 -4 -61 -9 0
-19 31 -32 66 -29 25 2 39 -2 42 -11 13 -38 -92 -44 -132 -6 -21 20 -26 33
-26 73 0 40 5 54 26 76 32 31 81 35 114 8z"/>
<path d="M2872 3888 c-16 -16 -15 -28 3 -28 8 0 15 9 15 20 0 23 -2 24 -18 8z"/>
<path d="M1738 3705 c2 -15 9 -22 18 -18 19 7 17 20 -5 32 -16 9 -17 7 -13
-14z"/>
<path d="M3105 3829 c-7 -22 10 -42 30 -36 19 6 16 36 -4 46 -16 9 -21 7 -26
-10z"/>
<path d="M3395 3601 c-23 -25 -26 -33 -15 -46 19 -23 47 -18 67 11 12 19 14
30 7 42 -17 26 -28 24 -59 -7z"/>
<path d="M1462 3547 l-22 -23 23 -22 23 -22 24 25 c19 21 22 30 14 43 -17 26
-37 25 -62 -1z"/>
<path d="M2673 3324 c-93 -117 -176 -298 -190 -414 -5 -46 -4 -50 65 -141 119
-158 157 -257 155 -406 l0 -83 97 0 c66 0 101 4 107 13 18 23 70 162 89 237
15 58 19 110 18 225 0 133 -3 160 -27 238 -29 95 -81 205 -130 277 -36 52
-106 130 -117 130 -4 0 -34 -34 -67 -76z m130 -258 c80 -33 115 -123 77 -201
-28 -57 -72 -85 -136 -85 -128 0 -198 145 -117 241 47 55 112 72 176 45z"/>
<path d="M1894 2280 c22 -118 131 -226 251 -245 38 -6 37 -5 -23 24 -78 38
-168 126 -206 201 -25 49 -27 51 -22 20z"/>
<path d="M1180 3067 c0 -2 13 -16 29 -31 l29 -27 10 30 11 31 -40 0 c-21 0
-39 -1 -39 -3z"/>
<path d="M3826 2594 c-30 -30 -12 -64 34 -64 28 0 50 16 50 36 0 19 -29 44
-50 44 -10 0 -26 -7 -34 -16z"/>
<path d="M3110 2528 c0 -19 -50 -172 -75 -230 -7 -17 2 -18 100 -18 l107 0 -7
33 c-12 54 -42 126 -77 183 -35 58 -48 67 -48 32z"/>
<path d="M1122 2458 c-46 -23 -37 -101 13 -114 33 -8 73 18 81 53 6 21 2 31
-20 50 -30 25 -40 27 -74 11z"/>
<path d="M3840 2321 c0 -28 21 -37 37 -16 10 15 10 20 0 27 -21 13 -37 9 -37
-11z"/>
<path d="M1183 2210 c-44 -18 -44 -85 0 -110 24 -13 30 -13 55 0 20 12 28 24
30 51 4 50 -37 78 -85 59z"/>
<path d="M1315 1980 c-6 -10 21 -70 33 -70 4 0 13 4 21 9 11 7 11 13 1 32 -19
36 -43 49 -55 29z"/>
<path d="M1245 1931 c-6 -10 14 -61 24 -61 3 0 13 4 21 10 12 7 12 12 0 34
-14 26 -34 34 -45 17z"/>
<path d="M3685 1899 c-9 -28 9 -46 30 -29 20 17 19 27 -4 40 -16 8 -21 6 -26
-11z"/>
<path d="M1723 1098 c-19 -20 -113 -183 -113 -195 0 -3 13 -2 29 2 16 3 46 -1
72 -10 24 -9 51 -18 59 -20 10 -3 28 16 53 55 38 59 38 59 21 92 -27 55 -64
98 -83 98 -10 0 -27 -10 -38 -22z"/>
<path d="M1897 983 c-12 -21 83 -127 99 -110 7 7 -23 77 -43 99 -16 18 -48 24
-56 11z"/>
<path d="M1853 933 c-39 -55 -46 -75 -32 -84 8 -5 48 -9 89 -9 l75 0 -39 32
c-21 17 -46 44 -56 60 l-18 29 -19 -28z"/>
<path d="M1635 859 c21 -10 51 -31 66 -45 l27 -26 17 26 c10 15 16 28 14 30
-21 19 -77 36 -116 36 l-48 -1 40 -20z"/>
<path d="M1580 841 c0 -13 40 -60 61 -72 11 -5 29 -7 40 -4 20 7 20 7 -3 32
-36 39 -98 67 -98 44z"/>
<path d="M1762 800 l-22 -29 31 -36 c64 -73 85 -71 156 18 l50 63 -66 -1 c-36
0 -79 3 -96 7 -26 6 -33 3 -53 -22z"/>
<path d="M3146 888 c-32 -45 -10 -98 40 -98 23 0 24 3 24 60 0 57 -1 60 -24
60 -14 0 -32 -10 -40 -22z"/>
<path d="M2191 831 c-21 -13 -5 -41 24 -41 20 0 25 5 25 25 0 26 -22 33 -49
16z"/>
<path d="M2554 825 c-8 -21 4 -35 32 -35 19 0 24 5 24 25 0 20 -5 25 -25 25
-14 0 -28 -7 -31 -15z"/>
<path d="M2950 825 c-16 -19 -4 -35 26 -35 19 0 24 5 24 25 0 29 -29 35 -50
10z"/>
<path d="M3352 898 c-20 -20 -14 -28 24 -28 28 0 35 3 32 18 -4 21 -39 27 -56
10z"/>
</g>
</svg>
